<?xml version="1.0" standalone="no"?><!-- Generator: Gravit.io --><svg xmlns="http://www.w3.org/2000/svg" xmlns:xlink="http://www.w3.org/1999/xlink" style="isolation:isolate" viewBox="0 0 24 24" width="24" height="24"><path d=" M 18 10 L 21 10 L 21 3 L 11 3 L 11 10 L 15 10" fill="none" vector-effect="non-scaling-stroke" stroke-width="2" stroke="rgb(0,0,0)" stroke-linejoin="round" stroke-linecap="round" stroke-miterlimit="3"/><path d=" M 5 11.5 C 5 9.568 6.568 8 8.5 8 C 10.432 8 12 9.568 12 11.5 C 12 13.432 10.432 15 8.5 15 C 6.568 15 5 13.432 5 11.5 Z " fill="none" vector-effect="non-scaling-stroke" stroke-width="2" stroke="rgb(255,255,255)" stroke-linejoin="round" stroke-linecap="round" stroke-miterlimit="3"/><path d=" M 6 11.5 C 6 10.12 7.12 9 8.5 9 C 9.88 9 11 10.12 11 11.5 C 11 12.88 9.88 14 8.5 14 C 7.12 14 6 12.88 6 11.5 Z " fill="none" vector-effect="non-scaling-stroke" stroke-width="2" stroke="rgb(0,0,0)" stroke-linejoin="round" stroke-linecap="round" stroke-miterlimit="3"/><path d=" M 3 19.5 L 3 21 L 14 21 L 14 19.5" fill="none" vector-effect="non-scaling-stroke" stroke-width="2" stroke="rgb(0,0,0)" stroke-linejoin="round" stroke-linecap="round" stroke-miterlimit="3"/><path d=" M 3 19.5 C 3 18.12 5.464 17 8.5 17 C 11.536 17 14 18.12 14 19.5" fill="none" vector-effect="non-scaling-stroke" stroke-width="2" stroke="rgb(0,0,0)" stroke-linejoin="round" stroke-linecap="round" stroke-miterlimit="3"/><path d=" M 15 10 L 15 14 L 18 10" fill="rgb(255,255,255)" vector-effect="non-scaling-stroke" stroke-width="2" stroke="rgb(0,0,0)" stroke-linejoin="round" stroke-linecap="round" stroke-miterlimit="3"/></svg>