<?xml version="1.0" standalone="no"?><!-- Generator: Gravit.io --><svg xmlns="http://www.w3.org/2000/svg" xmlns:xlink="http://www.w3.org/1999/xlink" style="isolation:isolate" viewBox="0 0 24 24" width="24" height="24"><path d="M 3.82 7 L 20.18 7 C 21.184 7 22 7.816 22 8.82 L 22 19.18 C 22 20.184 21.184 21 20.18 21 L 3.82 21 C 2.816 21 2 20.184 2 19.18 L 2 8.82 C 2 7.816 2.816 7 3.82 7 Z" style="fill:none;stroke:#000000;stroke-width:2;stroke-linecap:round;stroke-linejoin:round;stroke-miterlimit:3;"/><line x1="2" y1="17" x2="22" y2="17" vector-effect="non-scaling-stroke" stroke-width="2" stroke="rgb(0,0,0)" stroke-linejoin="round" stroke-linecap="round" stroke-miterlimit="3"/><path d=" M 15 6 L 15 4.65 C 15 3.739 14.261 3 13.35 3 L 10.65 3 C 9.739 3 9 3.739 9 4.65 L 9 6" fill="none" vector-effect="non-scaling-stroke" stroke-width="2" stroke="rgb(0,0,0)" stroke-linejoin="round" stroke-linecap="round" stroke-miterlimit="3"/></svg>