<?xml version="1.0" standalone="no"?><!-- Generator: Gravit.io --><svg xmlns="http://www.w3.org/2000/svg" xmlns:xlink="http://www.w3.org/1999/xlink" style="isolation:isolate" viewBox="0 0 24 24" width="24" height="24"><path d=" M 5 8.5 C 5 7.12 6.12 6 7.5 6 C 8.88 6 10 7.12 10 8.5 C 10 9.88 8.88 11 7.5 11 C 6.12 11 5 9.88 5 8.5 Z " fill="none" vector-effect="non-scaling-stroke" stroke-width="2" stroke="rgb(0,0,0)" stroke-linejoin="round" stroke-linecap="round" stroke-miterlimit="3"/><path d=" M 14 8.5 C 14 7.12 15.12 6 16.5 6 C 17.88 6 19 7.12 19 8.5 C 19 9.88 17.88 11 16.5 11 C 15.12 11 14 9.88 14 8.5 Z " fill="none" vector-effect="non-scaling-stroke" stroke-width="2" stroke="rgb(0,0,0)" stroke-linejoin="round" stroke-linecap="round" stroke-miterlimit="3"/><path d=" M 2 16.5 L 2 18 L 13 18 L 13 16.5" fill="none" vector-effect="non-scaling-stroke" stroke-width="2" stroke="rgb(0,0,0)" stroke-linejoin="round" stroke-linecap="round" stroke-miterlimit="3"/><path d=" M 2 16.5 C 2 15.12 4.464 14 7.5 14 C 10.536 14 13 15.12 13 16.5" fill="none" vector-effect="non-scaling-stroke" stroke-width="2" stroke="rgb(0,0,0)" stroke-linejoin="round" stroke-linecap="round" stroke-miterlimit="3"/><path d=" M 12.201 15.279 C 13.143 14.516 14.94 14 17 14" fill="none" vector-effect="non-scaling-stroke" stroke-width="2" stroke="rgb(0,0,0)" stroke-linejoin="round" stroke-linecap="butt" stroke-miterlimit="3"/><path d=" M 16.5 14 C 19.536 14 22 15.12 22 16.5" fill="none" vector-effect="non-scaling-stroke" stroke-width="2" stroke="rgb(0,0,0)" stroke-linejoin="round" stroke-linecap="round" stroke-miterlimit="3"/><path d=" M 11 18 L 22 18 L 22 16.5" fill="none" vector-effect="non-scaling-stroke" stroke-width="2" stroke="rgb(0,0,0)" stroke-linejoin="round" stroke-linecap="round" stroke-miterlimit="3"/></svg>