<?xml version="1.0" standalone="no"?><!-- Generator: Gravit.io --><svg xmlns="http://www.w3.org/2000/svg" xmlns:xlink="http://www.w3.org/1999/xlink" style="isolation:isolate" viewBox="0 0 24 24" width="24" height="24"><rect x="4" y="11" width="16" height="6" transform="matrix(1,0,0,1,0,0)" fill="none" vector-effect="non-scaling-stroke" stroke-width="2" stroke="rgb(0,0,0)" stroke-linejoin="round" stroke-linecap="round" stroke-miterlimit="3"/><path d=" M 5.75 14 C 5.75 13.31 6.31 12.75 7 12.75 C 7.69 12.75 8.25 13.31 8.25 14 C 8.25 14.69 7.69 15.25 7 15.25 C 6.31 15.25 5.75 14.69 5.75 14 Z " fill="rgb(0,0,0)"/><path d=" M 15.75 14 C 15.75 13.31 16.31 12.75 17 12.75 C 17.69 12.75 18.25 13.31 18.25 14 C 18.25 14.69 17.69 15.25 17 15.25 C 16.31 15.25 15.75 14.69 15.75 14 Z " fill="rgb(0,0,0)"/><path d=" M 4 11 L 6 5 L 18 5 L 20 11" fill="none" vector-effect="non-scaling-stroke" stroke-width="2" stroke="rgb(0,0,0)" stroke-linejoin="round" stroke-linecap="round" stroke-miterlimit="3"/><line x1="19" y1="17.031" x2="19" y2="19.016" vector-effect="non-scaling-stroke" stroke-width="2" stroke="rgb(0,0,0)" stroke-linejoin="round" stroke-linecap="round" stroke-miterlimit="3"/><line x1="5" y1="17.016" x2="5" y2="19" vector-effect="non-scaling-stroke" stroke-width="2" stroke="rgb(0,0,0)" stroke-linejoin="round" stroke-linecap="round" stroke-miterlimit="3"/></svg>