<?xml version="1.0" standalone="no"?><!-- Generator: Gravit.io --><svg xmlns="http://www.w3.org/2000/svg" xmlns:xlink="http://www.w3.org/1999/xlink" style="isolation:isolate" viewBox="0 0 24 24" width="24" height="24"><path d=" M 3 5.5 C 3 4.672 3.672 4 4.5 4 C 5.328 4 6 4.672 6 5.5 C 6 6.328 5.328 7 4.5 7 C 3.672 7 3 6.328 3 5.5 Z " fill="rgb(0,0,0)"/><line x1="8.5" y1="5.5" x2="20.5" y2="5.5" vector-effect="non-scaling-stroke" stroke-width="2" stroke="rgb(0,0,0)" stroke-linejoin="round" stroke-linecap="round" stroke-miterlimit="3"/><path d=" M 3 12 C 3 11.172 3.672 10.5 4.5 10.5 C 5.328 10.5 6 11.172 6 12 C 6 12.828 5.328 13.5 4.5 13.5 C 3.672 13.5 3 12.828 3 12 Z " fill="rgb(0,0,0)"/><line x1="8.5" y1="12" x2="20.5" y2="12" vector-effect="non-scaling-stroke" stroke-width="2" stroke="rgb(0,0,0)" stroke-linejoin="round" stroke-linecap="round" stroke-miterlimit="3"/><path d=" M 3 18.5 C 3 17.672 3.672 17 4.5 17 C 5.328 17 6 17.672 6 18.5 C 6 19.328 5.328 20 4.5 20 C 3.672 20 3 19.328 3 18.5 Z " fill="rgb(0,0,0)"/><line x1="8.5" y1="18.5" x2="20.5" y2="18.5" vector-effect="non-scaling-stroke" stroke-width="2" stroke="rgb(0,0,0)" stroke-linejoin="round" stroke-linecap="round" stroke-miterlimit="3"/></svg>