<?xml version="1.0" standalone="no"?><!-- Generator: Gravit.io --><svg xmlns="http://www.w3.org/2000/svg" xmlns:xlink="http://www.w3.org/1999/xlink" style="isolation:isolate" viewBox="0 0 24 24" width="24" height="24"><path d="M 16.583 14 C 15.811 15.765 14.049 17 12 17 C 9.951 17 8.189 15.765 7.417 14 L 16.583 14 Z" style="stroke:none;fill:#000000;stroke-miterlimit:10;"/><path d=" M 19.404 9.03 C 20.869 9.225 22 10.482 22 12 C 22 13.518 20.869 14.775 19.404 14.97 C 18.242 17.922 15.362 20 12 20 C 8.638 20 5.758 17.922 4.596 14.97 C 3.131 14.775 2 13.518 2 12 C 2 10.482 3.131 9.225 4.596 9.03 C 5.758 6.078 8.638 4 12 4 C 15.362 4 18.242 6.078 19.404 9.03 Z " fill="none" vector-effect="non-scaling-stroke" stroke-width="2" stroke="rgb(0,0,0)" stroke-linejoin="round" stroke-linecap="round" stroke-miterlimit="3"/><path d=" M 8.5 10.25 C 8.5 9.56 9.06 9 9.75 9 C 10.44 9 11 9.56 11 10.25 C 11 10.94 10.44 11.5 9.75 11.5 C 9.06 11.5 8.5 10.94 8.5 10.25 Z " fill="rgb(0,0,0)"/><path d=" M 13 10.25 C 13 9.56 13.56 9 14.25 9 C 14.94 9 15.5 9.56 15.5 10.25 C 15.5 10.94 14.94 11.5 14.25 11.5 C 13.56 11.5 13 10.94 13 10.25 Z " fill="rgb(0,0,0)"/></svg>