<?xml version="1.0" standalone="no"?><!-- Generator: Gravit.io --><svg xmlns="http://www.w3.org/2000/svg" xmlns:xlink="http://www.w3.org/1999/xlink" style="isolation:isolate" viewBox="0 0 88 32" width="88" height="32"><path d=" M 7.5 2.436 C 2.996 5.268 0 10.282 0 15.991 C 0 21.699 2.996 26.714 7.5 29.546 L 7.5 18.498 L 7.5 13.498 L 7.5 4.498 L 7.5 2.436 Z " fill="rgb(255,255,255)" fill-opacity="0.4"/><path d=" M 21.256 0.877 C 27.508 3.052 32 9.001 32 15.991 C 32 20.022 30.506 23.707 28.042 26.521 L 21.081 17.22 C 21.744 16.839 22.363 16.379 22.925 15.848 C 24.825 14.073 25.925 11.598 26 8.998 C 25.925 6.398 24.825 3.923 22.925 2.148 C 22.413 1.663 21.852 1.238 21.256 0.877 Z " fill="rgb(255,255,255)"/><g opacity="0.8"><path d=" M 24.199 29.73 C 21.801 31.166 18.996 31.991 16 31.991 C 14.798 31.991 13.627 31.858 12.5 31.606 L 12.5 18.498 L 12.5 18.498 L 14.224 18.498 C 15.206 18.56 16.088 19.026 16.724 19.743 L 24.199 29.73 Z " fill="rgb(255,255,255)"/></g><g opacity="0.8"><path d=" M 16.451 13.498 L 16.075 13.498 L 16 13.498 L 12.5 13.498 L 12.5 4.498 L 14.841 4.498 L 16.451 4.498 C 17.568 4.543 18.641 4.983 19.45 5.748 C 20.375 6.573 20.925 7.748 21 8.998 C 20.925 10.248 20.375 11.423 19.45 12.248 C 18.641 13.012 17.568 13.453 16.451 13.498 L 16.451 13.498 Z " fill="rgb(255,255,255)"/></g><path d=" M 41.711 12.407 L 41.711 15.828 L 42.899 15.828 L 42.899 15.828 Q 44.094 15.828 44.631 15.384 L 44.631 15.384 L 44.631 15.384 Q 45.167 14.941 45.167 14.067 L 45.167 14.067 L 45.167 14.067 Q 45.167 13.18 44.588 12.793 L 44.588 12.793 L 44.588 12.793 Q 44.008 12.407 42.841 12.407 L 42.841 12.407 L 41.711 12.407 Z  M 43.4 17.245 L 41.711 17.245 L 41.711 21.425 L 40 21.425 L 40 10.961 L 42.956 10.961 L 42.956 10.961 Q 44.981 10.961 45.955 11.72 L 45.955 11.72 L 45.955 11.72 Q 46.928 12.479 46.928 14.01 L 46.928 14.01 L 46.928 14.01 Q 46.928 15.964 44.895 16.794 L 44.895 16.794 L 47.851 21.425 L 45.904 21.425 L 43.4 17.245 Z  M 55.402 21.425 L 53.892 21.425 L 50.857 12.686 L 50.8 12.686 L 50.8 12.686 Q 50.921 14.633 50.921 16.336 L 50.921 16.336 L 50.921 21.425 L 49.368 21.425 L 49.368 10.961 L 51.78 10.961 L 54.686 19.285 L 54.729 19.285 L 57.721 10.961 L 60.14 10.961 L 60.14 21.425 L 58.493 21.425 L 58.493 16.25 L 58.493 16.25 Q 58.493 15.47 58.533 14.218 L 58.533 14.218 L 58.533 14.218 Q 58.572 12.965 58.601 12.7 L 58.601 12.7 L 58.544 12.7 L 55.402 21.425 Z  M 62.895 21.425 L 62.895 10.961 L 66.001 10.961 L 66.001 10.961 Q 68.162 10.961 69.125 11.591 L 69.125 11.591 L 69.125 11.591 Q 70.088 12.221 70.088 13.581 L 70.088 13.581 L 70.088 13.581 Q 70.088 14.497 69.615 15.105 L 69.615 15.105 L 69.615 15.105 Q 69.143 15.714 68.256 15.871 L 68.256 15.871 L 68.256 15.943 L 68.256 15.943 Q 69.358 16.15 69.877 16.762 L 69.877 16.762 L 69.877 16.762 Q 70.395 17.374 70.395 18.419 L 70.395 18.419 L 70.395 18.419 Q 70.395 19.829 69.411 20.627 L 69.411 20.627 L 69.411 20.627 Q 68.427 21.425 66.674 21.425 L 66.674 21.425 L 62.895 21.425 Z  M 64.605 12.393 L 64.605 15.284 L 66.252 15.284 L 66.252 15.284 Q 67.325 15.284 67.819 14.944 L 67.819 14.944 L 67.819 14.944 Q 68.313 14.604 68.313 13.788 L 68.313 13.788 L 68.313 13.788 Q 68.313 13.051 67.78 12.722 L 67.78 12.722 L 67.78 12.722 Q 67.246 12.393 66.087 12.393 L 66.087 12.393 L 64.605 12.393 Z  M 66.337 16.673 L 64.605 16.673 L 64.605 19.986 L 66.423 19.986 L 66.423 19.986 Q 67.497 19.986 68.044 19.575 L 68.044 19.575 L 68.044 19.575 Q 68.592 19.163 68.592 18.276 L 68.592 18.276 L 68.592 18.276 Q 68.592 17.46 68.034 17.066 L 68.034 17.066 L 68.034 17.066 Q 67.475 16.673 66.337 16.673 L 66.337 16.673 Z  M 77.023 12.278 L 77.023 12.278 L 77.023 12.278 Q 75.548 12.278 74.704 13.323 L 74.704 13.323 L 74.704 13.323 Q 73.859 14.368 73.859 16.207 L 73.859 16.207 L 73.859 16.207 Q 73.859 18.133 74.672 19.12 L 74.672 19.12 L 74.672 19.12 Q 75.484 20.108 77.023 20.108 L 77.023 20.108 L 77.023 20.108 Q 77.688 20.108 78.311 19.975 L 78.311 19.975 L 78.311 19.975 Q 78.934 19.843 79.606 19.636 L 79.606 19.636 L 79.606 21.103 L 79.606 21.103 Q 78.375 21.568 76.815 21.568 L 76.815 21.568 L 76.815 21.568 Q 74.518 21.568 73.287 20.176 L 73.287 20.176 L 73.287 20.176 Q 72.056 18.784 72.056 16.193 L 72.056 16.193 L 72.056 16.193 Q 72.056 14.561 72.653 13.337 L 72.653 13.337 L 72.653 13.337 Q 73.251 12.114 74.382 11.462 L 74.382 11.462 L 74.382 11.462 Q 75.513 10.811 77.037 10.811 L 77.037 10.811 L 77.037 10.811 Q 78.64 10.811 80 11.484 L 80 11.484 L 79.385 12.908 L 79.385 12.908 Q 78.855 12.658 78.264 12.468 L 78.264 12.468 L 78.264 12.468 Q 77.674 12.278 77.023 12.278 Z " fill-rule="evenodd" fill="rgb(255,255,255)"/></svg>