<?xml version="1.0" standalone="no"?><!-- Generator: Gravit.io --><svg xmlns="http://www.w3.org/2000/svg" xmlns:xlink="http://www.w3.org/1999/xlink" style="isolation:isolate" viewBox="0 0 32 32.114" width="32" height="32.114"><path d=" M 7.5 2.559 C 2.996 5.391 0 10.406 0 16.114 C 0 21.823 2.996 26.837 7.5 29.669 L 7.5 18.621 L 7.5 13.621 L 7.5 4.621 L 7.5 2.559 Z " fill="rgb(255,255,255)" fill-opacity="0.4"/><path d=" M 21.256 1 C 27.508 3.176 32 9.124 32 16.114 C 32 20.145 30.506 23.83 28.042 26.644 L 21.081 17.343 C 21.744 16.962 22.363 16.503 22.925 15.971 C 24.825 14.196 25.925 11.721 26 9.121 C 25.925 6.521 24.825 4.046 22.925 2.271 C 22.413 1.786 21.852 1.361 21.256 1 Z " fill="rgb(255,255,255)"/><g opacity="0.8"><path d=" M 24.199 29.854 C 21.801 31.289 18.996 32.114 16 32.114 C 14.798 32.114 13.627 31.981 12.5 31.729 L 12.5 18.621 L 12.5 18.621 L 14.224 18.621 C 15.206 18.683 16.088 19.149 16.724 19.866 L 24.199 29.854 Z " fill="rgb(255,255,255)"/></g><g opacity="0.8"><path d=" M 16.451 13.621 L 16.075 13.621 L 16 13.621 L 12.5 13.621 L 12.5 4.621 L 14.841 4.621 L 16.451 4.621 C 17.568 4.666 18.641 5.107 19.45 5.871 C 20.375 6.696 20.925 7.871 21 9.121 C 20.925 10.371 20.375 11.546 19.45 12.371 C 18.641 13.135 17.568 13.576 16.451 13.621 L 16.451 13.621 Z " fill="rgb(255,255,255)"/></g></svg>