<?xml version="1.0" standalone="no"?><!-- Generator: Gravit.io --><svg xmlns="http://www.w3.org/2000/svg" xmlns:xlink="http://www.w3.org/1999/xlink" style="isolation:isolate" viewBox="0 0 254 32" width="254" height="32"><path d=" M 49.956 18.448 L 51.624 22.82 L 49.016 22.82 L 47.271 18.275 L 47.271 18.275 Q 47.041 17.642 46.561 17.393 L 46.561 17.393 L 46.561 17.393 Q 46.082 17.143 45.315 17.143 L 45.315 17.143 L 42.841 17.143 L 42.841 22.82 L 40.386 22.82 L 40.386 9.165 L 46.235 9.165 L 46.235 9.165 Q 48.556 9.165 49.764 10.182 L 49.764 10.182 L 49.764 10.182 Q 50.972 11.198 50.972 13.097 L 50.972 13.097 L 50.972 13.097 Q 50.972 14.459 50.253 15.408 L 50.253 15.408 L 50.253 15.408 Q 49.534 16.357 48.211 16.76 L 48.211 16.76 L 48.211 16.76 Q 49.419 17.009 49.956 18.448 L 49.956 18.448 Z  M 42.802 15.226 L 45.89 15.226 L 45.89 15.226 Q 47.29 15.226 47.961 14.708 L 47.961 14.708 L 47.961 14.708 Q 48.633 14.19 48.633 13.135 L 48.633 13.135 L 48.633 13.135 Q 48.633 12.1 47.971 11.591 L 47.971 11.591 L 47.971 11.591 Q 47.309 11.083 45.89 11.083 L 45.89 11.083 L 42.802 11.083 L 42.802 15.226 Z  M 59.909 22.993 L 59.909 22.993 Q 57.934 22.993 56.467 22.139 L 56.467 22.139 L 56.467 22.139 Q 55 21.286 54.204 19.704 L 54.204 19.704 L 54.204 19.704 Q 53.408 18.122 53.408 15.974 L 53.408 15.974 L 53.408 15.974 Q 53.408 13.845 54.194 12.263 L 54.194 12.263 L 54.194 12.263 Q 54.981 10.68 56.448 9.837 L 56.448 9.837 L 56.448 9.837 Q 57.915 8.993 59.909 8.993 L 59.909 8.993 L 59.909 8.993 Q 61.904 8.993 63.371 9.837 L 63.371 9.837 L 63.371 9.837 Q 64.838 10.68 65.615 12.263 L 65.615 12.263 L 65.615 12.263 Q 66.391 13.845 66.391 15.974 L 66.391 15.974 L 66.391 15.974 Q 66.391 18.122 65.605 19.704 L 65.605 19.704 L 65.605 19.704 Q 64.819 21.286 63.361 22.139 L 63.361 22.139 L 63.361 22.139 Q 61.904 22.993 59.909 22.993 L 59.909 22.993 Z  M 59.909 21.017 L 59.909 21.017 Q 61.808 21.017 62.863 19.713 L 62.863 19.713 L 62.863 19.713 Q 63.918 18.409 63.918 15.974 L 63.918 15.974 L 63.918 15.974 Q 63.918 13.557 62.863 12.263 L 62.863 12.263 L 62.863 12.263 Q 61.808 10.968 59.909 10.968 L 59.909 10.968 L 59.909 10.968 Q 58.011 10.968 56.956 12.253 L 56.956 12.253 L 56.956 12.253 Q 55.901 13.538 55.901 15.974 L 55.901 15.974 L 55.901 15.974 Q 55.901 18.409 56.956 19.713 L 56.956 19.713 L 56.956 19.713 Q 58.011 21.017 59.909 21.017 L 59.909 21.017 Z  M 74.619 22.82 L 72.126 22.82 L 72.126 11.198 L 67.676 11.198 L 67.676 9.165 L 79.087 9.165 L 79.087 11.198 L 74.619 11.198 L 74.619 22.82 Z  M 90.23 14.88 L 90.23 9.165 L 92.685 9.165 L 92.685 22.82 L 90.23 22.82 L 90.23 16.894 L 83.23 16.894 L 83.23 22.82 L 80.794 22.82 L 80.794 9.165 L 83.23 9.165 L 83.23 14.88 L 90.23 14.88 Z  M 104.767 22.82 L 95.638 22.82 L 95.638 9.165 L 104.767 9.165 L 104.767 11.122 L 98.054 11.122 L 98.054 14.9 L 104.364 14.9 L 104.364 16.856 L 98.054 16.856 L 98.054 20.864 L 104.767 20.864 L 104.767 22.82 Z  M 116.619 18.448 L 118.287 22.82 L 115.679 22.82 L 113.934 18.275 L 113.934 18.275 Q 113.704 17.642 113.224 17.393 L 113.224 17.393 L 113.224 17.393 Q 112.745 17.143 111.978 17.143 L 111.978 17.143 L 109.504 17.143 L 109.504 22.82 L 107.049 22.82 L 107.049 9.165 L 112.898 9.165 L 112.898 9.165 Q 115.219 9.165 116.427 10.182 L 116.427 10.182 L 116.427 10.182 Q 117.635 11.198 117.635 13.097 L 117.635 13.097 L 117.635 13.097 Q 117.635 14.459 116.916 15.408 L 116.916 15.408 L 116.916 15.408 Q 116.197 16.357 114.874 16.76 L 114.874 16.76 L 114.874 16.76 Q 116.082 17.009 116.619 18.448 L 116.619 18.448 Z  M 109.465 15.226 L 112.553 15.226 L 112.553 15.226 Q 113.953 15.226 114.624 14.708 L 114.624 14.708 L 114.624 14.708 Q 115.296 14.19 115.296 13.135 L 115.296 13.135 L 115.296 13.135 Q 115.296 12.1 114.634 11.591 L 114.634 11.591 L 114.634 11.591 Q 113.972 11.083 112.553 11.083 L 112.553 11.083 L 109.465 11.083 L 109.465 15.226 Z  M 129.948 14.88 L 129.948 9.165 L 132.402 9.165 L 132.402 22.82 L 129.948 22.82 L 129.948 16.894 L 122.948 16.894 L 122.948 22.82 L 120.512 22.82 L 120.512 9.165 L 122.948 9.165 L 122.948 14.88 L 129.948 14.88 Z  M 148.263 22.82 L 145.789 22.82 L 144.427 19.617 L 137.753 19.617 L 136.372 22.82 L 133.879 22.82 L 140.055 9.165 L 142.068 9.165 L 148.263 22.82 Z  M 141.09 11.85 L 138.578 17.7 L 143.602 17.7 L 141.09 11.85 Z  M 156.433 19.848 L 161.093 9.165 L 163.049 9.165 L 163.049 22.82 L 160.863 22.82 L 160.863 14.343 L 157.238 22.82 L 155.608 22.82 L 151.964 14.439 L 151.964 22.82 L 149.778 22.82 L 149.778 9.165 L 151.734 9.165 L 156.433 19.848 Z  M 165.619 22.82 L 165.619 20.135 L 168.304 20.135 L 168.304 22.82 L 165.619 22.82 Z  M 177.068 15.437 L 182.246 15.437 L 182.246 21.996 L 182.246 21.996 Q 181.307 22.456 179.983 22.724 L 179.983 22.724 L 179.983 22.724 Q 178.66 22.993 177.279 22.993 L 177.279 22.993 L 177.279 22.993 Q 175.17 22.993 173.616 22.149 L 173.616 22.149 L 173.616 22.149 Q 172.063 21.305 171.238 19.733 L 171.238 19.733 L 171.238 19.733 Q 170.413 18.16 170.413 15.974 L 170.413 15.974 L 170.413 15.974 Q 170.413 13.826 171.238 12.253 L 171.238 12.253 L 171.238 12.253 Q 172.063 10.68 173.587 9.837 L 173.587 9.837 L 173.587 9.837 Q 175.112 8.993 177.164 8.993 L 177.164 8.993 L 177.164 8.993 Q 178.602 8.993 179.859 9.415 L 179.859 9.415 L 179.859 9.415 Q 181.115 9.837 181.959 10.604 L 181.959 10.604 L 181.115 12.406 L 181.115 12.406 Q 180.156 11.659 179.235 11.333 L 179.235 11.333 L 179.235 11.333 Q 178.315 11.006 177.222 11.006 L 177.222 11.006 L 177.222 11.006 Q 175.112 11.006 174.028 12.272 L 174.028 12.272 L 174.028 12.272 Q 172.945 13.538 172.945 15.974 L 172.945 15.974 L 172.945 15.974 Q 172.945 18.486 174.057 19.761 L 174.057 19.761 L 174.057 19.761 Q 175.17 21.037 177.375 21.037 L 177.375 21.037 L 177.375 21.037 Q 178.718 21.037 180.022 20.672 L 180.022 20.672 L 180.022 17.22 L 177.068 17.22 L 177.068 15.437 Z  M 191.087 22.993 L 191.087 22.993 Q 189.112 22.993 187.645 22.139 L 187.645 22.139 L 187.645 22.139 Q 186.178 21.286 185.382 19.704 L 185.382 19.704 L 185.382 19.704 Q 184.586 18.122 184.586 15.974 L 184.586 15.974 L 184.586 15.974 Q 184.586 13.845 185.372 12.263 L 185.372 12.263 L 185.372 12.263 Q 186.159 10.68 187.626 9.837 L 187.626 9.837 L 187.626 9.837 Q 189.093 8.993 191.087 8.993 L 191.087 8.993 L 191.087 8.993 Q 193.082 8.993 194.549 9.837 L 194.549 9.837 L 194.549 9.837 Q 196.016 10.68 196.793 12.263 L 196.793 12.263 L 196.793 12.263 Q 197.57 13.845 197.57 15.974 L 197.57 15.974 L 197.57 15.974 Q 197.57 18.122 196.783 19.704 L 196.783 19.704 L 196.783 19.704 Q 195.997 21.286 194.539 22.139 L 194.539 22.139 L 194.539 22.139 Q 193.082 22.993 191.087 22.993 L 191.087 22.993 Z  M 191.087 21.017 L 191.087 21.017 Q 192.986 21.017 194.041 19.713 L 194.041 19.713 L 194.041 19.713 Q 195.096 18.409 195.096 15.974 L 195.096 15.974 L 195.096 15.974 Q 195.096 13.557 194.041 12.263 L 194.041 12.263 L 194.041 12.263 Q 192.986 10.968 191.087 10.968 L 191.087 10.968 L 191.087 10.968 Q 189.189 10.968 188.134 12.253 L 188.134 12.253 L 188.134 12.253 Q 187.079 13.538 187.079 15.974 L 187.079 15.974 L 187.079 15.974 Q 187.079 18.409 188.134 19.713 L 188.134 19.713 L 188.134 19.713 Q 189.189 21.017 191.087 21.017 L 191.087 21.017 Z  M 205.567 19.713 L 210.112 9.165 L 212.624 9.165 L 206.545 22.82 L 204.531 22.82 L 198.452 9.165 L 201.022 9.165 L 205.567 19.713 Z  M 213.507 22.82 L 213.507 20.135 L 216.191 20.135 L 216.191 22.82 L 213.507 22.82 Z  M 224.381 22.993 L 224.381 22.993 Q 221.561 22.993 220.113 21.545 L 220.113 21.545 L 220.113 21.545 Q 218.665 20.097 218.665 17.297 L 218.665 17.297 L 218.665 9.165 L 221.101 9.165 L 221.101 17.431 L 221.101 17.431 Q 221.101 19.196 221.926 20.106 L 221.926 20.106 L 221.926 20.106 Q 222.75 21.017 224.381 21.017 L 224.381 21.017 L 224.381 21.017 Q 225.972 21.017 226.807 20.097 L 226.807 20.097 L 226.807 20.097 Q 227.641 19.176 227.641 17.431 L 227.641 17.431 L 227.641 9.165 L 230.076 9.165 L 230.076 17.297 L 230.076 17.297 Q 230.076 20.078 228.619 21.535 L 228.619 21.535 L 228.619 21.535 Q 227.161 22.993 224.381 22.993 L 224.381 22.993 Z  M 237.844 15.724 L 244.786 22.82 L 241.756 22.82 L 235.408 16.434 L 235.408 22.82 L 232.934 22.82 L 232.934 9.165 L 235.408 9.165 L 235.408 15.283 L 241.507 9.165 L 244.479 9.165 L 237.844 15.724 Z " fill-rule="evenodd" fill="rgb(255,255,255)"/><path d=" M 7.5 2.436 C 2.996 5.268 0 10.282 0 15.991 C 0 21.699 2.996 26.714 7.5 29.546 L 7.5 18.498 L 7.5 13.498 L 7.5 4.498 L 7.5 2.436 Z " fill="rgb(255,255,255)" fill-opacity="0.4"/><path d=" M 21.256 0.877 C 27.508 3.052 32 9.001 32 15.991 C 32 20.022 30.506 23.707 28.042 26.521 L 21.081 17.22 C 21.744 16.839 22.363 16.379 22.925 15.848 C 24.825 14.073 25.925 11.598 26 8.998 C 25.925 6.398 24.825 3.923 22.925 2.148 C 22.413 1.663 21.852 1.238 21.256 0.877 Z " fill="rgb(255,255,255)"/><g opacity="0.8"><path d=" M 24.199 29.73 C 21.801 31.166 18.996 31.991 16 31.991 C 14.798 31.991 13.627 31.858 12.5 31.606 L 12.5 18.498 L 12.5 18.498 L 14.224 18.498 C 15.206 18.56 16.088 19.026 16.724 19.743 L 24.199 29.73 Z " fill="rgb(255,255,255)"/></g><g opacity="0.8"><path d=" M 16.451 13.498 L 16.075 13.498 L 16 13.498 L 12.5 13.498 L 12.5 4.498 L 14.841 4.498 L 16.451 4.498 C 17.568 4.543 18.641 4.983 19.45 5.748 C 20.375 6.573 20.925 7.748 21 8.998 C 20.925 10.248 20.375 11.423 19.45 12.248 C 18.641 13.012 17.568 13.453 16.451 13.498 L 16.451 13.498 Z " fill="rgb(255,255,255)"/></g></svg>