<?xml version="1.0" standalone="no"?><!-- Generator: Gravit.io --><svg xmlns="http://www.w3.org/2000/svg" xmlns:xlink="http://www.w3.org/1999/xlink" style="isolation:isolate" viewBox="0 0 232 48" width="232" height="48"><path d=" M 11.25 3.654 C 4.494 7.902 0 15.424 0 23.986 C 0 32.549 4.494 40.071 11.25 44.319 L 11.25 27.747 L 11.25 20.247 L 11.25 6.747 L 11.25 3.654 Z " fill="rgb(255,255,255)" fill-opacity="0.4"/><path d=" M 31.884 1.315 C 41.263 4.579 48 13.502 48 23.986 C 48 30.033 45.759 35.56 42.064 39.782 L 31.622 25.83 C 32.616 25.259 33.545 24.569 34.387 23.772 C 37.238 21.109 38.887 17.397 39 13.497 C 38.887 9.597 37.238 5.884 34.387 3.222 C 33.619 2.495 32.779 1.857 31.884 1.315 Z " fill="rgb(255,255,255)"/><g opacity="0.8"><path d=" M 36.298 44.596 C 32.701 46.749 28.494 47.986 24 47.986 C 22.197 47.986 20.44 47.787 18.75 47.409 L 18.75 27.747 L 18.75 27.747 L 21.335 27.747 C 22.81 27.84 24.132 28.539 25.086 29.614 L 36.298 44.596 Z " fill="rgb(255,255,255)"/></g><g opacity="0.8"><path d=" M 24.677 20.247 L 24.113 20.247 L 24 20.247 L 18.75 20.247 L 18.75 6.747 L 22.261 6.747 L 24.677 6.747 C 26.353 6.814 27.961 7.475 29.175 8.622 C 30.562 9.859 31.387 11.622 31.5 13.497 C 31.387 15.372 30.562 17.134 29.175 18.372 C 27.961 19.519 26.353 20.18 24.677 20.247 L 24.677 20.247 Z " fill="rgb(255,255,255)"/></g><path d=" M 75.177 21.742 L 77.942 29.126 L 74.517 29.126 L 71.72 21.679 L 71.72 21.679 Q 71.28 20.485 70.432 20.03 L 70.432 20.03 L 70.432 20.03 Q 69.584 19.574 68.107 19.574 L 68.107 19.574 L 63.205 19.574 L 63.205 29.126 L 60 29.126 L 60 6.754 L 69.207 6.754 L 69.207 6.754 Q 72.883 6.754 74.847 8.388 L 74.847 8.388 L 74.847 8.388 Q 76.811 10.022 76.811 13.07 L 76.811 13.07 L 76.811 13.07 Q 76.811 15.269 75.648 16.809 L 75.648 16.809 L 75.648 16.809 Q 74.485 18.349 72.349 18.977 L 72.349 18.977 L 72.349 18.977 Q 74.297 19.323 75.177 21.742 L 75.177 21.742 Z  M 63.205 16.966 L 68.83 16.966 L 68.83 16.966 Q 71.28 16.966 72.474 16.008 L 72.474 16.008 L 72.474 16.008 Q 73.668 15.049 73.668 13.133 L 73.668 13.133 L 73.668 13.133 Q 73.668 11.216 72.49 10.289 L 72.49 10.289 L 72.49 10.289 Q 71.312 9.362 68.83 9.362 L 68.83 9.362 L 63.205 9.362 L 63.205 16.966 Z  M 88.437 29.346 L 88.437 29.346 Q 86.112 29.346 84.352 28.341 L 84.352 28.341 L 84.352 28.341 Q 82.592 27.335 81.634 25.482 L 81.634 25.482 L 81.634 25.482 Q 80.676 23.628 80.676 21.145 L 80.676 21.145 L 80.676 21.145 Q 80.676 18.663 81.634 16.793 L 81.634 16.793 L 81.634 16.793 Q 82.592 14.924 84.352 13.918 L 84.352 13.918 L 84.352 13.918 Q 86.112 12.913 88.437 12.913 L 88.437 12.913 L 88.437 12.913 Q 90.731 12.913 92.49 13.918 L 92.49 13.918 L 92.49 13.918 Q 94.25 14.924 95.208 16.793 L 95.208 16.793 L 95.208 16.793 Q 96.167 18.663 96.167 21.145 L 96.167 21.145 L 96.167 21.145 Q 96.167 23.628 95.208 25.482 L 95.208 25.482 L 95.208 25.482 Q 94.25 27.335 92.49 28.341 L 92.49 28.341 L 92.49 28.341 Q 90.731 29.346 88.437 29.346 L 88.437 29.346 Z  M 88.405 26.833 L 88.405 26.833 Q 90.605 26.833 91.767 25.387 L 91.767 25.387 L 91.767 25.387 Q 92.93 23.942 92.93 21.145 L 92.93 21.145 L 92.93 21.145 Q 92.93 18.412 91.752 16.935 L 91.752 16.935 L 91.752 16.935 Q 90.573 15.458 88.437 15.458 L 88.437 15.458 L 88.437 15.458 Q 86.269 15.458 85.075 16.935 L 85.075 16.935 L 85.075 16.935 Q 83.881 18.412 83.881 21.145 L 83.881 21.145 L 83.881 21.145 Q 83.881 23.942 85.059 25.387 L 85.059 25.387 L 85.059 25.387 Q 86.237 26.833 88.405 26.833 L 88.405 26.833 Z  M 108.358 15.741 L 103.991 15.741 L 103.991 23.69 L 103.991 23.69 Q 103.991 25.324 104.698 26 L 104.698 26 L 104.698 26 Q 105.405 26.676 106.661 26.676 L 106.661 26.676 L 106.661 26.676 Q 107.478 26.676 108.327 26.424 L 108.327 26.424 L 108.327 29.001 L 108.327 29.001 Q 107.29 29.346 105.97 29.346 L 105.97 29.346 L 105.97 29.346 Q 103.519 29.346 102.168 27.964 L 102.168 27.964 L 102.168 27.964 Q 100.817 26.581 100.817 23.942 L 100.817 23.942 L 100.817 15.741 L 97.738 15.741 L 97.738 13.29 L 100.817 13.29 L 100.817 9.331 L 103.991 8.231 L 103.991 13.29 L 108.358 13.29 L 108.358 15.741 Z  M 119.701 12.913 L 119.701 12.913 Q 125.389 12.913 125.389 19.26 L 125.389 19.26 L 125.389 29.126 L 122.215 29.126 L 122.215 19.449 L 122.215 19.449 Q 122.215 17.375 121.414 16.432 L 121.414 16.432 L 121.414 16.432 Q 120.613 15.489 118.853 15.489 L 118.853 15.489 L 118.853 15.489 Q 116.842 15.489 115.632 16.746 L 115.632 16.746 L 115.632 16.746 Q 114.423 18.003 114.423 20.108 L 114.423 20.108 L 114.423 29.126 L 111.28 29.126 L 111.28 6 L 114.423 6 L 114.423 15.741 L 114.423 15.741 Q 115.208 14.358 116.591 13.636 L 116.591 13.636 L 116.591 13.636 Q 117.973 12.913 119.701 12.913 L 119.701 12.913 Z  M 143.425 20.737 L 143.425 21.271 L 132.113 21.271 L 132.113 21.271 Q 132.27 26.833 137.172 26.833 L 137.172 26.833 L 137.172 26.833 Q 139.906 26.833 142.168 25.042 L 142.168 25.042 L 143.142 27.304 L 143.142 27.304 Q 142.074 28.247 140.424 28.797 L 140.424 28.797 L 140.424 28.797 Q 138.775 29.346 137.109 29.346 L 137.109 29.346 L 137.109 29.346 Q 133.307 29.346 131.139 27.163 L 131.139 27.163 L 131.139 27.163 Q 128.971 24.979 128.971 21.177 L 128.971 21.177 L 128.971 21.177 Q 128.971 18.757 129.929 16.872 L 129.929 16.872 L 129.929 16.872 Q 130.888 14.987 132.616 13.95 L 132.616 13.95 L 132.616 13.95 Q 134.344 12.913 136.544 12.913 L 136.544 12.913 L 136.544 12.913 Q 139.749 12.913 141.587 14.987 L 141.587 14.987 L 141.587 14.987 Q 143.425 17.06 143.425 20.737 L 143.425 20.737 Z  M 136.606 15.269 L 136.606 15.269 Q 134.815 15.269 133.684 16.338 L 133.684 16.338 L 133.684 16.338 Q 132.553 17.406 132.239 19.386 L 132.239 19.386 L 140.628 19.386 L 140.628 19.386 Q 140.44 17.375 139.403 16.322 L 139.403 16.322 L 139.403 16.322 Q 138.366 15.269 136.606 15.269 L 136.606 15.269 Z  M 154.957 12.913 L 154.957 12.913 Q 155.68 12.913 156.465 13.133 L 156.465 13.133 L 156.402 16.024 L 156.402 16.024 Q 155.554 15.709 154.548 15.709 L 154.548 15.709 L 154.548 15.709 Q 152.38 15.709 151.296 17.013 L 151.296 17.013 L 151.296 17.013 Q 150.212 18.317 150.212 20.297 L 150.212 20.297 L 150.212 29.126 L 147.07 29.126 L 147.07 17.752 L 147.07 17.752 Q 147.07 15.269 146.819 13.29 L 146.819 13.29 L 149.772 13.29 L 150.055 16.149 L 150.055 16.149 Q 150.683 14.578 152.003 13.745 L 152.003 13.745 L 152.003 13.745 Q 153.323 12.913 154.957 12.913 L 154.957 12.913 Z  M 167.306 12.913 L 167.306 12.913 Q 172.993 12.913 172.993 19.26 L 172.993 19.26 L 172.993 29.126 L 169.819 29.126 L 169.819 19.449 L 169.819 19.449 Q 169.819 17.375 169.018 16.432 L 169.018 16.432 L 169.018 16.432 Q 168.217 15.489 166.457 15.489 L 166.457 15.489 L 166.457 15.489 Q 164.446 15.489 163.236 16.746 L 163.236 16.746 L 163.236 16.746 Q 162.027 18.003 162.027 20.108 L 162.027 20.108 L 162.027 29.126 L 158.885 29.126 L 158.885 6 L 162.027 6 L 162.027 15.741 L 162.027 15.741 Q 162.812 14.358 164.195 13.636 L 164.195 13.636 L 164.195 13.636 Q 165.577 12.913 167.306 12.913 L 167.306 12.913 Z  M 188.861 13.29 L 192.003 13.29 L 192.003 29.126 L 188.861 29.126 L 188.861 26.424 L 188.861 26.424 Q 188.17 27.838 186.803 28.592 L 186.803 28.592 L 186.803 28.592 Q 185.436 29.346 183.614 29.346 L 183.614 29.346 L 183.614 29.346 Q 181.508 29.346 179.921 28.341 L 179.921 28.341 L 179.921 28.341 Q 178.335 27.335 177.455 25.497 L 177.455 25.497 L 177.455 25.497 Q 176.575 23.659 176.575 21.208 L 176.575 21.208 L 176.575 21.208 Q 176.575 18.757 177.471 16.872 L 177.471 16.872 L 177.471 16.872 Q 178.366 14.987 179.969 13.95 L 179.969 13.95 L 179.969 13.95 Q 181.571 12.913 183.614 12.913 L 183.614 12.913 L 183.614 12.913 Q 185.436 12.913 186.787 13.683 L 186.787 13.683 L 186.787 13.683 Q 188.138 14.452 188.861 15.866 L 188.861 15.866 L 188.861 13.29 Z  M 184.368 26.833 L 184.368 26.833 Q 186.504 26.833 187.683 25.34 L 187.683 25.34 L 187.683 25.34 Q 188.861 23.848 188.861 21.145 L 188.861 21.145 L 188.861 21.145 Q 188.861 18.412 187.683 16.935 L 187.683 16.935 L 187.683 16.935 Q 186.504 15.458 184.336 15.458 L 184.336 15.458 L 184.336 15.458 Q 182.2 15.458 180.99 16.982 L 180.99 16.982 L 180.99 16.982 Q 179.78 18.506 179.78 21.208 L 179.78 21.208 L 179.78 21.208 Q 179.78 23.879 180.99 25.356 L 180.99 25.356 L 180.99 25.356 Q 182.2 26.833 184.368 26.833 L 184.368 26.833 Z  M 214.721 12.913 L 214.721 12.913 Q 220 12.913 220 19.26 L 220 19.26 L 220 29.126 L 216.826 29.126 L 216.826 19.417 L 216.826 19.417 Q 216.826 17.375 216.119 16.432 L 216.119 16.432 L 216.119 16.432 Q 215.412 15.489 213.841 15.489 L 213.841 15.489 L 213.841 15.489 Q 212.019 15.489 210.966 16.746 L 210.966 16.746 L 210.966 16.746 Q 209.914 18.003 209.914 20.171 L 209.914 20.171 L 209.914 29.126 L 206.74 29.126 L 206.74 19.417 L 206.74 19.417 Q 206.74 17.375 206.033 16.432 L 206.033 16.432 L 206.033 16.432 Q 205.326 15.489 203.755 15.489 L 203.755 15.489 L 203.755 15.489 Q 201.932 15.489 200.864 16.746 L 200.864 16.746 L 200.864 16.746 Q 199.796 18.003 199.796 20.171 L 199.796 20.171 L 199.796 29.126 L 196.654 29.126 L 196.654 17.752 L 196.654 17.752 Q 196.654 15.269 196.402 13.29 L 196.402 13.29 L 199.356 13.29 L 199.639 15.929 L 199.639 15.929 Q 200.33 14.484 201.618 13.698 L 201.618 13.698 L 201.618 13.698 Q 202.907 12.913 204.635 12.913 L 204.635 12.913 L 204.635 12.913 Q 208.311 12.913 209.442 15.961 L 209.442 15.961 L 209.442 15.961 Q 210.165 14.547 211.563 13.73 L 211.563 13.73 L 211.563 13.73 Q 212.962 12.913 214.721 12.913 L 214.721 12.913 Z " fill-rule="evenodd" fill="rgb(255,255,255)"/><path d=" M 185.567 43.962 L 185.567 43.962 Q 184.372 43.962 183.485 43.446 L 183.485 43.446 L 183.485 43.446 Q 182.598 42.93 182.122 41.979 L 182.122 41.979 L 182.122 41.979 Q 181.647 41.028 181.647 39.729 L 181.647 39.729 L 181.647 39.729 Q 181.647 38.441 182.122 37.49 L 182.122 37.49 L 182.122 37.49 Q 182.598 36.539 183.485 36.029 L 183.485 36.029 L 183.485 36.029 Q 184.372 35.519 185.567 35.519 L 185.567 35.519 L 185.567 35.519 Q 186.413 35.519 187.138 35.78 L 187.138 35.78 L 187.138 35.78 Q 187.863 36.041 188.362 36.539 L 188.362 36.539 L 187.944 37.421 L 187.944 37.421 Q 187.364 36.945 186.802 36.731 L 186.802 36.731 L 186.802 36.731 Q 186.239 36.516 185.578 36.516 L 185.578 36.516 L 185.578 36.516 Q 184.291 36.516 183.589 37.351 L 183.589 37.351 L 183.589 37.351 Q 182.888 38.186 182.888 39.729 L 182.888 39.729 L 182.888 39.729 Q 182.888 41.283 183.589 42.124 L 183.589 42.124 L 183.589 42.124 Q 184.291 42.965 185.578 42.965 L 185.578 42.965 L 185.578 42.965 Q 186.239 42.965 186.802 42.75 L 186.802 42.75 L 186.802 42.75 Q 187.364 42.535 187.944 42.06 L 187.944 42.06 L 188.362 42.941 L 188.362 42.941 Q 187.863 43.44 187.138 43.701 L 187.138 43.701 L 187.138 43.701 Q 186.413 43.962 185.567 43.962 L 185.567 43.962 Z  M 192.282 43.95 L 192.282 43.95 Q 191.424 43.95 190.774 43.579 L 190.774 43.579 L 190.774 43.579 Q 190.125 43.208 189.771 42.524 L 189.771 42.524 L 189.771 42.524 Q 189.417 41.84 189.417 40.923 L 189.417 40.923 L 189.417 40.923 Q 189.417 40.007 189.771 39.317 L 189.771 39.317 L 189.771 39.317 Q 190.125 38.627 190.774 38.256 L 190.774 38.256 L 190.774 38.256 Q 191.424 37.885 192.282 37.885 L 192.282 37.885 L 192.282 37.885 Q 193.128 37.885 193.778 38.256 L 193.778 38.256 L 193.778 38.256 Q 194.427 38.627 194.781 39.317 L 194.781 39.317 L 194.781 39.317 Q 195.135 40.007 195.135 40.923 L 195.135 40.923 L 195.135 40.923 Q 195.135 41.84 194.781 42.524 L 194.781 42.524 L 194.781 42.524 Q 194.427 43.208 193.778 43.579 L 193.778 43.579 L 193.778 43.579 Q 193.128 43.95 192.282 43.95 L 192.282 43.95 Z  M 192.27 43.023 L 192.27 43.023 Q 193.082 43.023 193.511 42.489 L 193.511 42.489 L 193.511 42.489 Q 193.94 41.956 193.94 40.923 L 193.94 40.923 L 193.94 40.923 Q 193.94 39.914 193.505 39.369 L 193.505 39.369 L 193.505 39.369 Q 193.07 38.824 192.282 38.824 L 192.282 38.824 L 192.282 38.824 Q 191.482 38.824 191.041 39.369 L 191.041 39.369 L 191.041 39.369 Q 190.6 39.914 190.6 40.923 L 190.6 40.923 L 190.6 40.923 Q 190.6 41.956 191.035 42.489 L 191.035 42.489 L 191.035 42.489 Q 191.47 43.023 192.27 43.023 L 192.27 43.023 Z  M 200.412 38.024 L 201.583 38.024 L 201.583 43.869 L 200.447 43.869 L 200.447 42.895 L 200.447 42.895 Q 200.168 43.405 199.681 43.678 L 199.681 43.678 L 199.681 43.678 Q 199.194 43.95 198.579 43.95 L 198.579 43.95 L 198.579 43.95 Q 196.469 43.95 196.469 41.608 L 196.469 41.608 L 196.469 38.024 L 197.628 38.024 L 197.628 41.596 L 197.628 41.596 Q 197.628 42.315 197.924 42.657 L 197.924 42.657 L 197.924 42.657 Q 198.22 42.999 198.823 42.999 L 198.823 42.999 L 198.823 42.999 Q 199.542 42.999 199.977 42.535 L 199.977 42.535 L 199.977 42.535 Q 200.412 42.072 200.412 41.306 L 200.412 41.306 L 200.412 38.024 Z  M 206.408 37.885 L 206.408 37.885 Q 208.507 37.885 208.507 40.228 L 208.507 40.228 L 208.507 43.869 L 207.335 43.869 L 207.335 40.297 L 207.335 40.297 Q 207.335 39.532 207.04 39.184 L 207.04 39.184 L 207.04 39.184 Q 206.744 38.836 206.095 38.836 L 206.095 38.836 L 206.095 38.836 Q 205.352 38.836 204.906 39.3 L 204.906 39.3 L 204.906 39.3 Q 204.459 39.764 204.459 40.541 L 204.459 40.541 L 204.459 43.869 L 203.3 43.869 L 203.3 39.671 L 203.3 39.671 Q 203.3 38.755 203.207 38.024 L 203.207 38.024 L 204.297 38.024 L 204.401 39.033 L 204.401 39.033 Q 204.68 38.476 205.207 38.181 L 205.207 38.181 L 205.207 38.181 Q 205.735 37.885 206.408 37.885 L 206.408 37.885 Z  M 212.717 43.95 L 212.717 43.95 Q 211.835 43.95 211.18 43.579 L 211.18 43.579 L 211.18 43.579 Q 210.525 43.208 210.177 42.53 L 210.177 42.53 L 210.177 42.53 Q 209.829 41.851 209.829 40.947 L 209.829 40.947 L 209.829 40.947 Q 209.829 40.042 210.194 39.346 L 210.194 39.346 L 210.194 39.346 Q 210.56 38.65 211.221 38.268 L 211.221 38.268 L 211.221 38.268 Q 211.882 37.885 212.763 37.885 L 212.763 37.885 L 212.763 37.885 Q 213.378 37.885 213.946 38.088 L 213.946 38.088 L 213.946 38.088 Q 214.514 38.291 214.862 38.639 L 214.862 38.639 L 214.503 39.485 L 214.503 39.485 Q 213.679 38.836 212.844 38.836 L 212.844 38.836 L 212.844 38.836 Q 211.998 38.836 211.522 39.387 L 211.522 39.387 L 211.522 39.387 Q 211.047 39.938 211.047 40.935 L 211.047 40.935 L 211.047 40.935 Q 211.047 41.932 211.522 42.472 L 211.522 42.472 L 211.522 42.472 Q 211.998 43.011 212.844 43.011 L 212.844 43.011 L 212.844 43.011 Q 213.703 43.011 214.503 42.361 L 214.503 42.361 L 214.862 43.208 L 214.862 43.208 Q 214.491 43.556 213.917 43.753 L 213.917 43.753 L 213.917 43.753 Q 213.343 43.95 212.717 43.95 L 212.717 43.95 Z  M 217.124 43.869 L 215.964 43.869 L 215.964 38.024 L 217.124 38.024 L 217.124 43.869 Z  M 215.86 36.702 L 215.86 35.473 L 217.217 35.473 L 217.217 36.702 L 215.86 36.702 Z  M 220 43.869 L 218.84 43.869 L 218.84 35.333 L 220 35.333 L 220 43.869 Z  M 137.135 39.613 L 137.135 39.613 Q 137.854 39.81 138.249 40.332 L 138.249 40.332 L 138.249 40.332 Q 138.643 40.854 138.643 41.619 L 138.643 41.619 L 138.643 41.619 Q 138.643 42.686 137.907 43.278 L 137.907 43.278 L 137.907 43.278 Q 137.17 43.869 135.848 43.869 L 135.848 43.869 L 132.276 43.869 L 132.276 35.612 L 135.732 35.612 L 135.732 35.612 Q 137.008 35.612 137.721 36.18 L 137.721 36.18 L 137.721 36.18 Q 138.434 36.748 138.434 37.769 L 138.434 37.769 L 138.434 37.769 Q 138.434 38.43 138.092 38.911 L 138.092 38.911 L 138.092 38.911 Q 137.75 39.392 137.135 39.613 L 137.135 39.613 Z  M 133.459 36.574 L 133.459 39.195 L 135.547 39.195 L 135.547 39.195 Q 137.275 39.195 137.275 37.862 L 137.275 37.862 L 137.275 37.862 Q 137.275 36.574 135.547 36.574 L 135.547 36.574 L 133.459 36.574 Z  M 135.732 42.907 L 135.732 42.907 Q 136.637 42.907 137.054 42.576 L 137.054 42.576 L 137.054 42.576 Q 137.472 42.245 137.472 41.55 L 137.472 41.55 L 137.472 41.55 Q 137.472 40.842 137.048 40.5 L 137.048 40.5 L 137.048 40.5 Q 136.625 40.158 135.732 40.158 L 135.732 40.158 L 133.459 40.158 L 133.459 42.907 L 135.732 42.907 Z  M 142.633 43.95 L 142.633 43.95 Q 141.774 43.95 141.125 43.579 L 141.125 43.579 L 141.125 43.579 Q 140.476 43.208 140.122 42.524 L 140.122 42.524 L 140.122 42.524 Q 139.768 41.84 139.768 40.923 L 139.768 40.923 L 139.768 40.923 Q 139.768 40.007 140.122 39.317 L 140.122 39.317 L 140.122 39.317 Q 140.476 38.627 141.125 38.256 L 141.125 38.256 L 141.125 38.256 Q 141.774 37.885 142.633 37.885 L 142.633 37.885 L 142.633 37.885 Q 143.479 37.885 144.129 38.256 L 144.129 38.256 L 144.129 38.256 Q 144.778 38.627 145.132 39.317 L 145.132 39.317 L 145.132 39.317 Q 145.486 40.007 145.486 40.923 L 145.486 40.923 L 145.486 40.923 Q 145.486 41.84 145.132 42.524 L 145.132 42.524 L 145.132 42.524 Q 144.778 43.208 144.129 43.579 L 144.129 43.579 L 144.129 43.579 Q 143.479 43.95 142.633 43.95 L 142.633 43.95 Z  M 142.621 43.023 L 142.621 43.023 Q 143.433 43.023 143.862 42.489 L 143.862 42.489 L 143.862 42.489 Q 144.291 41.956 144.291 40.923 L 144.291 40.923 L 144.291 40.923 Q 144.291 39.914 143.856 39.369 L 143.856 39.369 L 143.856 39.369 Q 143.421 38.824 142.633 38.824 L 142.633 38.824 L 142.633 38.824 Q 141.832 38.824 141.392 39.369 L 141.392 39.369 L 141.392 39.369 Q 140.951 39.914 140.951 40.923 L 140.951 40.923 L 140.951 40.923 Q 140.951 41.956 141.386 42.489 L 141.386 42.489 L 141.386 42.489 Q 141.821 43.023 142.621 43.023 L 142.621 43.023 Z  M 149.765 37.885 L 149.765 37.885 Q 150.032 37.885 150.322 37.966 L 150.322 37.966 L 150.299 39.033 L 150.299 39.033 Q 149.986 38.917 149.614 38.917 L 149.614 38.917 L 149.614 38.917 Q 148.814 38.917 148.414 39.398 L 148.414 39.398 L 148.414 39.398 Q 148.014 39.88 148.014 40.61 L 148.014 40.61 L 148.014 43.869 L 146.854 43.869 L 146.854 39.671 L 146.854 39.671 Q 146.854 38.755 146.761 38.024 L 146.761 38.024 L 147.852 38.024 L 147.956 39.079 L 147.956 39.079 Q 148.188 38.499 148.675 38.192 L 148.675 38.192 L 148.675 38.192 Q 149.162 37.885 149.765 37.885 L 149.765 37.885 Z  M 153.732 43.95 L 153.732 43.95 Q 152.873 43.95 152.224 43.579 L 152.224 43.579 L 152.224 43.579 Q 151.574 43.208 151.221 42.524 L 151.221 42.524 L 151.221 42.524 Q 150.867 41.84 150.867 40.923 L 150.867 40.923 L 150.867 40.923 Q 150.867 40.007 151.221 39.317 L 151.221 39.317 L 151.221 39.317 Q 151.574 38.627 152.224 38.256 L 152.224 38.256 L 152.224 38.256 Q 152.873 37.885 153.732 37.885 L 153.732 37.885 L 153.732 37.885 Q 154.578 37.885 155.228 38.256 L 155.228 38.256 L 155.228 38.256 Q 155.877 38.627 156.231 39.317 L 156.231 39.317 L 156.231 39.317 Q 156.585 40.007 156.585 40.923 L 156.585 40.923 L 156.585 40.923 Q 156.585 41.84 156.231 42.524 L 156.231 42.524 L 156.231 42.524 Q 155.877 43.208 155.228 43.579 L 155.228 43.579 L 155.228 43.579 Q 154.578 43.95 153.732 43.95 L 153.732 43.95 Z  M 153.72 43.023 L 153.72 43.023 Q 154.532 43.023 154.961 42.489 L 154.961 42.489 L 154.961 42.489 Q 155.39 41.956 155.39 40.923 L 155.39 40.923 L 155.39 40.923 Q 155.39 39.914 154.955 39.369 L 154.955 39.369 L 154.955 39.369 Q 154.52 38.824 153.732 38.824 L 153.732 38.824 L 153.732 38.824 Q 152.931 38.824 152.491 39.369 L 152.491 39.369 L 152.491 39.369 Q 152.05 39.914 152.05 40.923 L 152.05 40.923 L 152.05 40.923 Q 152.05 41.956 152.485 42.489 L 152.485 42.489 L 152.485 42.489 Q 152.92 43.023 153.72 43.023 L 153.72 43.023 Z  M 161.861 38.024 L 163.033 38.024 L 163.033 43.869 L 161.896 43.869 L 161.896 42.895 L 161.896 42.895 Q 161.618 43.405 161.131 43.678 L 161.131 43.678 L 161.131 43.678 Q 160.644 43.95 160.029 43.95 L 160.029 43.95 L 160.029 43.95 Q 157.918 43.95 157.918 41.608 L 157.918 41.608 L 157.918 38.024 L 159.078 38.024 L 159.078 41.596 L 159.078 41.596 Q 159.078 42.315 159.374 42.657 L 159.374 42.657 L 159.374 42.657 Q 159.669 42.999 160.273 42.999 L 160.273 42.999 L 160.273 42.999 Q 160.992 42.999 161.427 42.535 L 161.427 42.535 L 161.427 42.535 Q 161.861 42.072 161.861 41.306 L 161.861 41.306 L 161.861 38.024 Z  M 168.982 38.024 L 170.142 38.024 L 170.142 43.765 L 170.142 43.765 Q 170.142 45.098 169.44 45.777 L 169.44 45.777 L 169.44 45.777 Q 168.739 46.455 167.359 46.455 L 167.359 46.455 L 167.359 46.455 Q 166.025 46.455 165.028 45.876 L 165.028 45.876 L 165.225 44.959 L 165.225 44.959 Q 165.77 45.249 166.274 45.388 L 166.274 45.388 L 166.274 45.388 Q 166.779 45.528 167.347 45.528 L 167.347 45.528 L 167.347 45.528 Q 168.982 45.528 168.982 43.858 L 168.982 43.858 L 168.982 42.593 L 168.982 42.593 Q 168.716 43.104 168.205 43.399 L 168.205 43.399 L 168.205 43.399 Q 167.695 43.695 167.022 43.695 L 167.022 43.695 L 167.022 43.695 Q 166.257 43.695 165.66 43.336 L 165.66 43.336 L 165.66 43.336 Q 165.062 42.976 164.732 42.315 L 164.732 42.315 L 164.732 42.315 Q 164.401 41.654 164.401 40.796 L 164.401 40.796 L 164.401 40.796 Q 164.401 39.938 164.732 39.277 L 164.732 39.277 L 164.732 39.277 Q 165.062 38.615 165.66 38.25 L 165.66 38.25 L 165.66 38.25 Q 166.257 37.885 167.022 37.885 L 167.022 37.885 L 167.022 37.885 Q 167.695 37.885 168.205 38.169 L 168.205 38.169 L 168.205 38.169 Q 168.716 38.453 168.982 38.975 L 168.982 38.975 L 168.982 38.024 Z  M 167.289 42.756 L 167.289 42.756 Q 168.078 42.756 168.53 42.234 L 168.53 42.234 L 168.53 42.234 Q 168.982 41.712 168.982 40.796 L 168.982 40.796 L 168.982 40.796 Q 168.982 39.88 168.536 39.352 L 168.536 39.352 L 168.536 39.352 Q 168.089 38.824 167.289 38.824 L 167.289 38.824 L 167.289 38.824 Q 166.5 38.824 166.042 39.352 L 166.042 39.352 L 166.042 39.352 Q 165.584 39.88 165.584 40.796 L 165.584 40.796 L 165.584 40.796 Q 165.584 41.7 166.042 42.228 L 166.042 42.228 L 166.042 42.228 Q 166.5 42.756 167.289 42.756 L 167.289 42.756 Z  M 174.967 37.885 L 174.967 37.885 Q 177.066 37.885 177.066 40.228 L 177.066 40.228 L 177.066 43.869 L 175.894 43.869 L 175.894 40.297 L 175.894 40.297 Q 175.894 39.532 175.599 39.184 L 175.599 39.184 L 175.599 39.184 Q 175.303 38.836 174.654 38.836 L 174.654 38.836 L 174.654 38.836 Q 173.911 38.836 173.465 39.3 L 173.465 39.3 L 173.465 39.3 Q 173.018 39.764 173.018 40.541 L 173.018 40.541 L 173.018 43.869 L 171.859 43.869 L 171.859 35.333 L 173.018 35.333 L 173.018 38.929 L 173.018 38.929 Q 173.308 38.418 173.819 38.152 L 173.819 38.152 L 173.819 38.152 Q 174.329 37.885 174.967 37.885 L 174.967 37.885 Z  M 63.966 42.431 L 66.935 35.612 L 67.898 35.612 L 67.898 43.869 L 66.819 43.869 L 66.819 38.198 L 64.372 43.869 L 63.549 43.869 L 61.067 38.233 L 61.079 43.869 L 60 43.869 L 60 35.612 L 60.963 35.612 L 63.966 42.431 Z  M 74.717 40.773 L 74.717 40.97 L 70.542 40.97 L 70.542 40.97 Q 70.6 43.023 72.409 43.023 L 72.409 43.023 L 72.409 43.023 Q 73.418 43.023 74.253 42.361 L 74.253 42.361 L 74.613 43.196 L 74.613 43.196 Q 74.219 43.544 73.61 43.747 L 73.61 43.747 L 73.61 43.747 Q 73.001 43.95 72.386 43.95 L 72.386 43.95 L 72.386 43.95 Q 70.983 43.95 70.183 43.144 L 70.183 43.144 L 70.183 43.144 Q 69.382 42.338 69.382 40.935 L 69.382 40.935 L 69.382 40.935 Q 69.382 40.042 69.736 39.346 L 69.736 39.346 L 69.736 39.346 Q 70.09 38.65 70.728 38.268 L 70.728 38.268 L 70.728 38.268 Q 71.366 37.885 72.177 37.885 L 72.177 37.885 L 72.177 37.885 Q 73.36 37.885 74.039 38.65 L 74.039 38.65 L 74.039 38.65 Q 74.717 39.416 74.717 40.773 L 74.717 40.773 Z  M 72.201 38.755 L 72.201 38.755 Q 71.54 38.755 71.122 39.149 L 71.122 39.149 L 71.122 39.149 Q 70.705 39.543 70.589 40.274 L 70.589 40.274 L 73.685 40.274 L 73.685 40.274 Q 73.616 39.532 73.233 39.143 L 73.233 39.143 L 73.233 39.143 Q 72.85 38.755 72.201 38.755 L 72.201 38.755 Z  M 79.194 38.929 L 77.582 38.929 L 77.582 41.863 L 77.582 41.863 Q 77.582 42.466 77.843 42.715 L 77.843 42.715 L 77.843 42.715 Q 78.104 42.965 78.568 42.965 L 78.568 42.965 L 78.568 42.965 Q 78.869 42.965 79.182 42.872 L 79.182 42.872 L 79.182 43.823 L 79.182 43.823 Q 78.8 43.95 78.313 43.95 L 78.313 43.95 L 78.313 43.95 Q 77.408 43.95 76.909 43.44 L 76.909 43.44 L 76.909 43.44 Q 76.411 42.93 76.411 41.956 L 76.411 41.956 L 76.411 38.929 L 75.274 38.929 L 75.274 38.024 L 76.411 38.024 L 76.411 36.563 L 77.582 36.157 L 77.582 38.024 L 79.194 38.024 L 79.194 38.929 Z  M 83.184 37.885 L 83.184 37.885 Q 83.45 37.885 83.74 37.966 L 83.74 37.966 L 83.717 39.033 L 83.717 39.033 Q 83.404 38.917 83.033 38.917 L 83.033 38.917 L 83.033 38.917 Q 82.233 38.917 81.832 39.398 L 81.832 39.398 L 81.832 39.398 Q 81.432 39.88 81.432 40.61 L 81.432 40.61 L 81.432 43.869 L 80.273 43.869 L 80.273 39.671 L 80.273 39.671 Q 80.273 38.755 80.18 38.024 L 80.18 38.024 L 81.27 38.024 L 81.374 39.079 L 81.374 39.079 Q 81.606 38.499 82.093 38.192 L 82.093 38.192 L 82.093 38.192 Q 82.58 37.885 83.184 37.885 L 83.184 37.885 Z  M 87.15 43.95 L 87.15 43.95 Q 86.292 43.95 85.642 43.579 L 85.642 43.579 L 85.642 43.579 Q 84.993 43.208 84.639 42.524 L 84.639 42.524 L 84.639 42.524 Q 84.285 41.84 84.285 40.923 L 84.285 40.923 L 84.285 40.923 Q 84.285 40.007 84.639 39.317 L 84.639 39.317 L 84.639 39.317 Q 84.993 38.627 85.642 38.256 L 85.642 38.256 L 85.642 38.256 Q 86.292 37.885 87.15 37.885 L 87.15 37.885 L 87.15 37.885 Q 87.997 37.885 88.646 38.256 L 88.646 38.256 L 88.646 38.256 Q 89.295 38.627 89.649 39.317 L 89.649 39.317 L 89.649 39.317 Q 90.003 40.007 90.003 40.923 L 90.003 40.923 L 90.003 40.923 Q 90.003 41.84 89.649 42.524 L 89.649 42.524 L 89.649 42.524 Q 89.295 43.208 88.646 43.579 L 88.646 43.579 L 88.646 43.579 Q 87.997 43.95 87.15 43.95 L 87.15 43.95 Z  M 87.138 43.023 L 87.138 43.023 Q 87.95 43.023 88.379 42.489 L 88.379 42.489 L 88.379 42.489 Q 88.808 41.956 88.808 40.923 L 88.808 40.923 L 88.808 40.923 Q 88.808 39.914 88.373 39.369 L 88.373 39.369 L 88.373 39.369 Q 87.939 38.824 87.15 38.824 L 87.15 38.824 L 87.15 38.824 Q 86.35 38.824 85.909 39.369 L 85.909 39.369 L 85.909 39.369 Q 85.468 39.914 85.468 40.923 L 85.468 40.923 L 85.468 40.923 Q 85.468 41.956 85.903 42.489 L 85.903 42.489 L 85.903 42.489 Q 86.338 43.023 87.138 43.023 L 87.138 43.023 Z  M 94.468 37.885 L 94.468 37.885 Q 95.222 37.885 95.813 38.268 L 95.813 38.268 L 95.813 38.268 Q 96.405 38.65 96.735 39.346 L 96.735 39.346 L 96.735 39.346 Q 97.066 40.042 97.066 40.947 L 97.066 40.947 L 97.066 40.947 Q 97.066 41.851 96.741 42.53 L 96.741 42.53 L 96.741 42.53 Q 96.416 43.208 95.825 43.579 L 95.825 43.579 L 95.825 43.579 Q 95.233 43.95 94.468 43.95 L 94.468 43.95 L 94.468 43.95 Q 93.795 43.95 93.291 43.666 L 93.291 43.666 L 93.291 43.666 Q 92.786 43.382 92.531 42.849 L 92.531 42.849 L 92.531 46.374 L 91.371 46.374 L 91.371 39.671 L 91.371 39.671 Q 91.371 38.755 91.279 38.024 L 91.279 38.024 L 92.369 38.024 L 92.485 39.103 L 92.485 39.103 Q 92.717 38.523 93.239 38.204 L 93.239 38.204 L 93.239 38.204 Q 93.761 37.885 94.468 37.885 L 94.468 37.885 Z  M 94.201 43.023 L 94.201 43.023 Q 94.99 43.023 95.431 42.477 L 95.431 42.477 L 95.431 42.477 Q 95.871 41.932 95.871 40.947 L 95.871 40.947 L 95.871 40.947 Q 95.871 39.949 95.431 39.387 L 95.431 39.387 L 95.431 39.387 Q 94.99 38.824 94.201 38.824 L 94.201 38.824 L 94.201 38.824 Q 93.389 38.824 92.96 39.369 L 92.96 39.369 L 92.96 39.369 Q 92.531 39.914 92.531 40.923 L 92.531 40.923 L 92.531 40.923 Q 92.531 41.932 92.966 42.477 L 92.966 42.477 L 92.966 42.477 Q 93.401 43.023 94.201 43.023 L 94.201 43.023 Z  M 100.951 43.95 L 100.951 43.95 Q 100.093 43.95 99.443 43.579 L 99.443 43.579 L 99.443 43.579 Q 98.794 43.208 98.44 42.524 L 98.44 42.524 L 98.44 42.524 Q 98.086 41.84 98.086 40.923 L 98.086 40.923 L 98.086 40.923 Q 98.086 40.007 98.44 39.317 L 98.44 39.317 L 98.44 39.317 Q 98.794 38.627 99.443 38.256 L 99.443 38.256 L 99.443 38.256 Q 100.093 37.885 100.951 37.885 L 100.951 37.885 L 100.951 37.885 Q 101.798 37.885 102.447 38.256 L 102.447 38.256 L 102.447 38.256 Q 103.097 38.627 103.45 39.317 L 103.45 39.317 L 103.45 39.317 Q 103.804 40.007 103.804 40.923 L 103.804 40.923 L 103.804 40.923 Q 103.804 41.84 103.45 42.524 L 103.45 42.524 L 103.45 42.524 Q 103.097 43.208 102.447 43.579 L 102.447 43.579 L 102.447 43.579 Q 101.798 43.95 100.951 43.95 L 100.951 43.95 Z  M 100.939 43.023 L 100.939 43.023 Q 101.751 43.023 102.18 42.489 L 102.18 42.489 L 102.18 42.489 Q 102.609 41.956 102.609 40.923 L 102.609 40.923 L 102.609 40.923 Q 102.609 39.914 102.175 39.369 L 102.175 39.369 L 102.175 39.369 Q 101.74 38.824 100.951 38.824 L 100.951 38.824 L 100.951 38.824 Q 100.151 38.824 99.71 39.369 L 99.71 39.369 L 99.71 39.369 Q 99.269 39.914 99.269 40.923 L 99.269 40.923 L 99.269 40.923 Q 99.269 41.956 99.704 42.489 L 99.704 42.489 L 99.704 42.489 Q 100.139 43.023 100.939 43.023 L 100.939 43.023 Z  M 106.332 43.869 L 105.173 43.869 L 105.173 35.333 L 106.332 35.333 L 106.332 43.869 Z  M 109.208 43.869 L 108.049 43.869 L 108.049 38.024 L 109.208 38.024 L 109.208 43.869 Z  M 107.944 36.702 L 107.944 35.473 L 109.301 35.473 L 109.301 36.702 L 107.944 36.702 Z  M 114.056 38.929 L 112.444 38.929 L 112.444 41.863 L 112.444 41.863 Q 112.444 42.466 112.705 42.715 L 112.705 42.715 L 112.705 42.715 Q 112.966 42.965 113.43 42.965 L 113.43 42.965 L 113.43 42.965 Q 113.732 42.965 114.045 42.872 L 114.045 42.872 L 114.045 43.823 L 114.045 43.823 Q 113.662 43.95 113.175 43.95 L 113.175 43.95 L 113.175 43.95 Q 112.27 43.95 111.772 43.44 L 111.772 43.44 L 111.772 43.44 Q 111.273 42.93 111.273 41.956 L 111.273 41.956 L 111.273 38.929 L 110.136 38.929 L 110.136 38.024 L 111.273 38.024 L 111.273 36.563 L 112.444 36.157 L 112.444 38.024 L 114.056 38.024 L 114.056 38.929 Z  M 119.322 38.024 L 120.481 38.024 L 120.481 43.869 L 119.322 43.869 L 119.322 42.872 L 119.322 42.872 Q 119.066 43.394 118.562 43.672 L 118.562 43.672 L 118.562 43.672 Q 118.057 43.95 117.385 43.95 L 117.385 43.95 L 117.385 43.95 Q 116.608 43.95 116.022 43.579 L 116.022 43.579 L 116.022 43.579 Q 115.436 43.208 115.112 42.53 L 115.112 42.53 L 115.112 42.53 Q 114.787 41.851 114.787 40.947 L 114.787 40.947 L 114.787 40.947 Q 114.787 40.042 115.117 39.346 L 115.117 39.346 L 115.117 39.346 Q 115.448 38.65 116.039 38.268 L 116.039 38.268 L 116.039 38.268 Q 116.631 37.885 117.385 37.885 L 117.385 37.885 L 117.385 37.885 Q 118.057 37.885 118.556 38.169 L 118.556 38.169 L 118.556 38.169 Q 119.055 38.453 119.322 38.975 L 119.322 38.975 L 119.322 38.024 Z  M 117.663 43.023 L 117.663 43.023 Q 118.452 43.023 118.887 42.472 L 118.887 42.472 L 118.887 42.472 Q 119.322 41.921 119.322 40.923 L 119.322 40.923 L 119.322 40.923 Q 119.322 39.914 118.887 39.369 L 118.887 39.369 L 118.887 39.369 Q 118.452 38.824 117.651 38.824 L 117.651 38.824 L 117.651 38.824 Q 116.863 38.824 116.416 39.387 L 116.416 39.387 L 116.416 39.387 Q 115.97 39.949 115.97 40.947 L 115.97 40.947 L 115.97 40.947 Q 115.97 41.932 116.416 42.477 L 116.416 42.477 L 116.416 42.477 Q 116.863 43.023 117.663 43.023 L 117.663 43.023 Z  M 125.306 37.885 L 125.306 37.885 Q 127.405 37.885 127.405 40.228 L 127.405 40.228 L 127.405 43.869 L 126.234 43.869 L 126.234 40.297 L 126.234 40.297 Q 126.234 39.532 125.938 39.184 L 125.938 39.184 L 125.938 39.184 Q 125.642 38.836 124.993 38.836 L 124.993 38.836 L 124.993 38.836 Q 124.251 38.836 123.804 39.3 L 123.804 39.3 L 123.804 39.3 Q 123.357 39.764 123.357 40.541 L 123.357 40.541 L 123.357 43.869 L 122.198 43.869 L 122.198 39.671 L 122.198 39.671 Q 122.198 38.755 122.105 38.024 L 122.105 38.024 L 123.195 38.024 L 123.3 39.033 L 123.3 39.033 Q 123.578 38.476 124.106 38.181 L 124.106 38.181 L 124.106 38.181 Q 124.633 37.885 125.306 37.885 L 125.306 37.885 Z " fill-rule="evenodd" fill="rgb(255,255,255)"/></svg>