<?xml version="1.0" standalone="no"?>
<!DOCTYPE svg PUBLIC "-//W3C//DTD SVG 1.1//EN" "http://www.w3.org/Graphics/SVG/1.1/DTD/svg11.dtd">
<svg width="100%" height="100%" viewBox="0 0 960 144" version="1.1" xmlns="http://www.w3.org/2000/svg" xmlns:xlink="http://www.w3.org/1999/xlink" xml:space="preserve" style="fill-rule:evenodd;clip-rule:evenodd;stroke-linejoin:round;stroke-miterlimit:1.41421;">
    <g transform="matrix(1,0,0,1,118.378,-0.543991)">
        <g>
            <path d="M841.622,144.544L101.622,144.544L-118.378,144.544L261.644,105.666L261.847,91.706L279.356,91.706L279.399,82.756L304.326,70.205L332.521,76.252L331.642,73.936L331.642,71.357L334.2,71.357L334.716,67.874L339.107,67.874L339.623,71.357L342.401,71.357L341.742,73.936L341.742,81.268L349.451,81.268L348.572,73.936L348.572,71.357L351.131,71.357L351.647,67.874L356.038,67.874L356.553,71.357L359.332,71.357L358.673,73.936L358.673,75.649L375.63,63.196L402.109,81.268L408.811,81.268L407.932,73.569L407.932,70.989L410.491,70.989L411.006,67.506L415.398,67.506L415.914,70.989L418.691,70.989L418.033,73.569L418.033,76.032L434.706,63.788L451.246,75.935L460.38,75.851L460.468,81.268L467.107,81.268L466.228,73.936L466.228,71.357L468.787,71.357L469.302,67.874L473.694,67.874L474.21,71.357L476.988,71.357L476.329,73.936L476.329,75.966L490.335,65.68L507.636,78.386L532.891,80.419L544.396,67.995L585.039,71.259L585.322,83.559L600.823,86.97L600.823,81.305L598.484,81.252L603.607,73.218L603.607,62.441L608.617,62.441L608.617,65.922L613.788,59.104L653.042,63.01L663.639,77.952L663.639,85.558L674.231,85.478L674.231,76.387L670.306,76.369L701.355,62.223L732.06,76.002L728.522,76.002L728.522,90.908L744.517,90.908L744.517,73.407L744.517,72.518L744.517,70.958L745.849,65.65L747.208,71.021L747.208,72.518L787.403,72.518L787.403,69.717L788.469,66.039L789.612,69.793L792.093,69.793L792.093,47.074L793.236,43.287L794.357,47.074L796.152,47.074L805.662,0.544L815.17,47.074L816.966,47.074L818.087,43.287L819.23,47.074L819.23,69.793L821.71,69.793L822.853,66.039L823.919,69.717L823.919,86.631L841.622,90.544L841.622,144.544Z" style="fill:rgb(236,78,153);fill-rule:nonzero;"/>
        </g>
    </g>
</svg>
