<?xml version="1.0" standalone="no"?><!DOCTYPE svg PUBLIC "-//W3C//DTD SVG 1.1//EN" "http://www.w3.org/Graphics/SVG/1.1/DTD/svg11.dtd"><svg width="100%" height="100%" viewBox="0 0 960 144" version="1.1" xmlns="http://www.w3.org/2000/svg" xmlns:xlink="http://www.w3.org/1999/xlink" xml:space="preserve" style="fill-rule:evenodd;clip-rule:evenodd;stroke-linejoin:round;stroke-miterlimit:1.41421;"><g><path d="M960,144l-740,0l-220,0l380.022,-38.878l0.203,-13.96l17.509,0l0.043,-8.95l24.927,-12.551l28.195,6.047l-0.879,-2.316l0,-2.579l2.558,0l0.516,-3.483l4.391,0l0.516,3.483l2.778,0l-0.659,2.579l0,7.332l7.709,0l-0.879,-7.332l0,-2.579l2.559,0l0.516,-3.483l4.391,0l0.515,3.483l2.779,0l-0.659,2.579l0,1.713l16.957,-12.453l26.479,18.072l6.702,0l-0.879,-7.699l0,-2.58l2.559,0l0.515,-3.483l4.392,0l0.516,3.483l2.777,0l-0.658,2.58l0,2.463l16.673,-12.244l16.54,12.147l9.134,-0.084l0.088,5.417l6.639,0l-0.879,-7.332l0,-2.579l2.559,0l0.515,-3.483l4.392,0l0.516,3.483l2.778,0l-0.659,2.579l0,2.03l14.006,-10.286l17.301,12.706l25.255,2.033l11.505,-12.424l40.643,3.264l0.283,12.3l15.501,3.411l0,-5.665l-2.339,-0.053l5.123,-8.034l0,-10.777l5.01,0l0,3.481l5.171,-6.818l39.254,3.906l10.597,14.942l0,7.606l10.592,-0.08l0,-9.091l-3.925,-0.018l31.049,-14.146l30.705,13.779l-3.538,0l0,14.906l15.995,0l0,-17.501l0,-0.889l0,-1.56l1.332,-5.308l1.359,5.371l0,1.497l40.195,0l0,-2.801l1.066,-3.678l1.143,3.754l2.481,0l0,-22.719l1.143,-3.787l1.121,3.787l1.795,0l9.51,-46.53l9.508,46.53l1.796,0l1.121,-3.787l1.143,3.787l0,22.719l2.48,0l1.143,-3.754l1.066,3.678l0,16.914l17.703,3.913l0,54Z" style="fill:#ec4e99;fill-rule:nonzero;"/></g></svg>